<?xml version="1.0" encoding="utf-8"?>
<!-- Generator: Adobe Illustrator 25.4.1, SVG Export Plug-In . SVG Version: 6.00 Build 0)  -->
<svg version="1.1" id="Layer_1" xmlns="http://www.w3.org/2000/svg" xmlns:xlink="http://www.w3.org/1999/xlink" x="0px" y="0px"
	 viewBox="0 0 60 60" style="enable-background:new 0 0 60 60;" xml:space="preserve">
<style type="text/css">
	.st0{fill:#FFFFFF;stroke:#000000;stroke-width:0.25;stroke-miterlimit:10;}
</style>
<g>
	<path class="st0" d="M59.7,31.4c-0.1,0.6-0.1,1.2-0.2,1.9c-0.5,5-2.2,9.7-5.1,13.8c-4.6,6.5-10.8,10.7-18.5,12.4
		c-3.7,0.8-7.4,0.9-11.1,0.2c-6.8-1.1-12.5-4.2-17.1-9.3c-3.9-4.2-6.4-9.1-7.4-14.7c-1.7-9.5,0.5-18,6.8-25.3c4.2-5,9.6-8.1,16-9.6
		c1.7-0.4,3.3-0.6,5.1-0.7c0.1,0,0.2,0,0.3-0.1c0.9,0,1.8,0,2.7,0c0.1,0,0.2,0,0.4,0.1c2.1,0.1,4.1,0.4,6.1,1
		c6.9,1.9,12.5,5.8,16.7,11.6c3.1,4.2,4.8,9,5.4,14.2c0.1,0.6,0.1,1.2,0.2,1.9C59.7,29.6,59.7,30.5,59.7,31.4z M56.7,30
		c0-14.9-12.1-27-27-27C14.8,3,2.6,15.1,2.6,30c0,14.9,12.1,27,27,27C44.5,57.1,56.6,44.9,56.7,30z"/>
	<path class="st0" d="M30.1,46c-2.4,0-4.8-0.1-7.1-0.4c-1.6-0.2-3.1-0.6-4.5-1.3c-0.4-0.2-0.8-0.5-1.1-0.8c-0.5-0.5-0.7-1.1-0.8-1.9
		c-0.2-1.9,0.8-3.2,2.1-4.3c1.6-1.3,3.5-2.3,5.4-3.1c0.4-0.2,0.7-0.3,1.1-0.4c1.1-0.4,1.6-1.3,1.3-2.5c-0.1-0.3-0.2-0.6-0.5-0.9
		c-1.7-2-2.7-4.2-3.1-6.8c-0.3-1.8-0.2-3.5,0.5-5.2c1.1-2.7,3.2-4.1,6.1-4.3c1.9-0.1,3.7,0.3,5.2,1.5c1.5,1.2,2.3,2.8,2.5,4.7
		c0.5,3.8-0.7,7.1-3.2,10c-0.5,0.6-0.7,2.1-0.2,2.8c0.2,0.2,0.5,0.5,0.8,0.6c1.8,0.7,3.6,1.4,5.3,2.4c1,0.6,2,1.3,2.8,2.3
		c1,1.2,1.1,2.5,0.8,3.9c-0.2,0.8-0.8,1.3-1.4,1.8c-1.1,0.7-2.2,1-3.4,1.3c-2.5,0.5-5.1,0.7-7.7,0.7C30.7,46,30.4,46,30.1,46z"/>
</g>
</svg>
